<svg width="136" height="197" viewBox="0 0 136 197" fill="none" xmlns="http://www.w3.org/2000/svg">
<g filter="url(#filter0_dddd_2096_1469)">
<rect x="39" y="9" width="58" height="58" rx="29" fill="white"/>
<rect x="38" y="8" width="60" height="60" rx="30" stroke="#826BD5" stroke-width="2"/>
<path d="M82.3693 26.4911V41.7001C82.3693 44.0508 80.4695 45.9552 78.1244 45.9552H67.043L65.3312 47.6711C64.86 48.1434 65.1928 48.9493 65.8585 48.9493H71.4306L76.0948 53.6247C76.8945 54.4263 78.2627 53.8587 78.2627 52.7256V48.9515H79.3845C82.6849 48.9515 85.3585 46.2693 85.3585 42.9632V29.4874C85.3585 27.8343 84.0206 26.4933 82.3715 26.4933L82.3693 26.4911Z" fill="#FF3964"/>
<path d="M77.1398 22H54.7349C52.6729 22 51 23.6769 51 25.7438V40.7166C51 42.7835 52.6729 44.4604 54.7349 44.4604H58.098V49.7337C58.098 50.8668 59.4661 51.4345 60.2658 50.6329L66.4236 44.4604H77.1419C79.2039 44.4604 80.8768 42.7835 80.8768 40.7166V25.7438C80.8768 23.6769 79.2039 22 77.1419 22H77.1398Z" fill="#5E34F1"/>
<path d="M66.8032 32.5942L71.5367 34.3491L66.8032 36.104L65.0525 40.8487L63.3018 36.104L58.5684 34.3491L63.3018 32.5942L65.0525 27.8495L66.8032 32.5942Z" fill="white"/>
<path d="M71.922 27.8973L74.131 28.7162L71.922 29.5352L71.105 31.7494L70.288 29.5352L68.0791 28.7162L70.288 27.8973L71.105 25.6831L71.922 27.8973Z" fill="white"/>
</g>
<defs>
<filter id="filter0_dddd_2096_1469" x="0" y="0" width="136" height="197" filterUnits="userSpaceOnUse" color-interpolation-filters="sRGB">
<feFlood flood-opacity="0" result="BackgroundImageFix"/>
<feColorMatrix in="SourceAlpha" type="matrix" values="0 0 0 0 0 0 0 0 0 0 0 0 0 0 0 0 0 0 127 0" result="hardAlpha"/>
<feOffset dy="6"/>
<feGaussianBlur stdDeviation="6.5"/>
<feColorMatrix type="matrix" values="0 0 0 0 0 0 0 0 0 0 0 0 0 0 0 0 0 0 0.1 0"/>
<feBlend mode="normal" in2="BackgroundImageFix" result="effect1_dropShadow_2096_1469"/>
<feColorMatrix in="SourceAlpha" type="matrix" values="0 0 0 0 0 0 0 0 0 0 0 0 0 0 0 0 0 0 127 0" result="hardAlpha"/>
<feOffset dy="23"/>
<feGaussianBlur stdDeviation="11.5"/>
<feColorMatrix type="matrix" values="0 0 0 0 0 0 0 0 0 0 0 0 0 0 0 0 0 0 0.09 0"/>
<feBlend mode="normal" in2="effect1_dropShadow_2096_1469" result="effect2_dropShadow_2096_1469"/>
<feColorMatrix in="SourceAlpha" type="matrix" values="0 0 0 0 0 0 0 0 0 0 0 0 0 0 0 0 0 0 127 0" result="hardAlpha"/>
<feOffset dy="51"/>
<feGaussianBlur stdDeviation="15.5"/>
<feColorMatrix type="matrix" values="0 0 0 0 0 0 0 0 0 0 0 0 0 0 0 0 0 0 0.05 0"/>
<feBlend mode="normal" in2="effect2_dropShadow_2096_1469" result="effect3_dropShadow_2096_1469"/>
<feColorMatrix in="SourceAlpha" type="matrix" values="0 0 0 0 0 0 0 0 0 0 0 0 0 0 0 0 0 0 127 0" result="hardAlpha"/>
<feOffset dy="91"/>
<feGaussianBlur stdDeviation="18.5"/>
<feColorMatrix type="matrix" values="0 0 0 0 0 0 0 0 0 0 0 0 0 0 0 0 0 0 0.01 0"/>
<feBlend mode="normal" in2="effect3_dropShadow_2096_1469" result="effect4_dropShadow_2096_1469"/>
<feBlend mode="normal" in="SourceGraphic" in2="effect4_dropShadow_2096_1469" result="shape"/>
</filter>
</defs>
</svg>
