<svg width="100" height="100" viewBox="0 0 100 100" fill="none" xmlns="http://www.w3.org/2000/svg">
<path d="M51 54.9583C49.8383 54.9583 48.875 53.995 48.875 52.8333V38.6666C48.875 37.505 49.8383 36.5416 51 36.5416C52.1617 36.5416 53.125 37.505 53.125 38.6666V52.8333C53.125 53.995 52.1617 54.9583 51 54.9583Z" fill="#676767"/>
<path d="M59.1883 25.775H42.8117C41.6783 25.775 40.7717 24.8683 40.7717 23.735C40.7717 22.6016 41.6783 21.6666 42.8117 21.6666H59.1883C60.3217 21.6666 61.2283 22.5733 61.2283 23.7066C61.2283 24.84 60.3217 25.775 59.1883 25.775Z" fill="#676767"/>
<path opacity="0.4" d="M59.5 72.5815V64.2515C59.5 60.6531 61.6533 58.4998 65.2517 58.4998H73.5817C74.12 58.4998 74.6017 58.5565 75.0833 58.6698C75.395 57.0831 75.565 55.4398 75.565 53.7681C75.565 40.2248 64.5433 29.2031 51 29.2031C37.4567 29.2031 26.435 40.2248 26.435 53.7681C26.435 67.3115 37.4567 78.3331 51 78.3331C54.4283 78.3331 57.6867 77.6248 60.6617 76.3498C59.925 75.3865 59.5 74.1398 59.5 72.5815Z" fill="#838383"/>
<path d="M73.5817 58.5H65.28C61.6533 58.5 59.5 60.6533 59.5 64.2517V72.5533C59.5 76.1517 61.6533 78.305 65.2517 78.305H73.5533C77.1517 78.305 79.305 76.1517 79.305 72.5533V64.2517C79.3333 60.6533 77.18 58.5 73.5817 58.5ZM67.7733 72.8367C67.7733 73.7433 67.0367 74.48 66.13 74.48C65.2233 74.48 64.4867 73.7433 64.4867 72.8367V64.025C64.4867 63.1183 65.2233 62.3817 66.13 62.3817C67.0367 62.3817 67.7733 63.1183 67.7733 64.025V72.8367ZM74.375 72.8367C74.375 73.7433 73.6383 74.48 72.7317 74.48C71.825 74.48 71.0883 73.7433 71.0883 72.8367V64.025C71.0883 63.1183 71.825 62.3817 72.7317 62.3817C73.6383 62.3817 74.375 63.1183 74.375 64.025V72.8367Z" fill="#676767"/>
<path d="M14.5 84V69M14.5 84L8 77.6842M14.5 84L21 77.6842" stroke="#676767" stroke-width="3" stroke-linecap="round" stroke-linejoin="round"/>
<path d="M86.5 31V16M86.5 31L80 24.6842M86.5 31L93 24.6842" stroke="#676767" stroke-width="3" stroke-linecap="round" stroke-linejoin="round"/>
</svg>
