<svg width="100" height="100" viewBox="0 0 100 100" fill="none" xmlns="http://www.w3.org/2000/svg">
<path d="M56.5784 24.8508C56.1446 24.8508 55.7929 25.2024 55.7929 25.6362C55.7929 26.07 56.1446 26.4217 56.5784 26.4217V24.8508ZM56.5784 25.6362V26.4217H58.4472V25.6362V24.8508H56.5784V25.6362ZM60.6899 25.6362V26.4217H64.4277V25.6362V24.8508H60.6899V25.6362ZM66.6703 25.6362V26.4217H70.4081V25.6362V24.8508H66.6703V25.6362ZM72.6507 25.6362V26.4217H76.3885V25.6362V24.8508H72.6507V25.6362ZM78.6311 25.6362V26.4217H80.5V25.6362V24.8508H78.6311V25.6362Z" fill="#B7A3FF"/>
<path d="M90.1975 20.3275C88.9375 18.8925 87.065 18 85 18C81.1325 18 78 21.1325 78 25C78 26.3125 78.3675 27.555 79.015 28.605C79.365 29.2 79.82 29.7424 80.345 30.1974C81.57 31.3174 83.1975 32 85 32C87.555 32 89.7775 30.635 90.985 28.605C91.6325 27.555 92 26.3125 92 25C92 23.215 91.3175 21.57 90.1975 20.3275ZM87.8 27.765C87.5375 28.0275 87.205 28.15 86.8725 28.15C86.54 28.15 86.2075 28.0275 85.945 27.765L85.0175 26.8375L84.055 27.8C83.7925 28.0625 83.46 28.185 83.1275 28.185C82.795 28.185 82.4625 28.0625 82.2 27.8C81.6925 27.2925 81.6925 26.4525 82.2 25.945L83.1625 24.9825L82.235 24.055C81.7275 23.5475 81.7275 22.7075 82.235 22.2C82.7425 21.6925 83.5825 21.6925 84.09 22.2L85.0175 23.1275L85.8925 22.2525C86.4 21.745 87.24 21.745 87.7475 22.2525C88.255 22.76 88.255 23.6 87.7475 24.1075L86.8725 24.9825L87.8 25.91C88.3075 26.4175 88.3075 27.24 87.8 27.765Z" fill="#FF3964"/>
<path d="M8.66602 25.3314C8.66602 32.4378 14.4269 38.1987 21.5333 38.1987H45.1675C52.8205 38.1987 59.0246 31.9947 59.0246 24.3416V19.9207C59.0246 17.0509 60.8793 14.5101 63.6125 13.6354C64.2647 13.4267 64.1144 12.4641 63.4297 12.4641H21.5333C14.4269 12.4641 8.66602 18.225 8.66602 25.3314Z" fill="#5E34F1"/>
<circle cx="21.2332" cy="25.6362" r="3.14179" fill="white"/>
<circle cx="33.0149" cy="25.6362" r="3.14179" fill="white"/>
<circle cx="44.7966" cy="25.6362" r="3.14179" fill="white"/>
<path d="M44.334 70L30.334 70C25.9157 70 22.334 66.4183 22.334 62L22.334 38" stroke="#B7A3FF" stroke-width="2" stroke-linecap="round" stroke-dasharray="5 3"/>
<circle cx="22" cy="38" r="4" transform="rotate(-180 22 38)" fill="#B7A3FF"/>
<path d="M98 69.2611C98 77.1373 91.6151 83.5222 83.7389 83.5222H58.0718C48.3282 83.5222 40.4295 75.6235 40.4295 65.8799V63.5245C40.4295 60.2437 38.3092 57.339 35.1845 56.3391C34.439 56.1005 34.6108 55 35.3936 55H83.7389C91.6151 55 98 61.385 98 69.2611Z" fill="#B7A3FF"/>
<rect x="55" y="63" width="34" height="5" rx="2.5" fill="white"/>
<rect x="55" y="72" width="17" height="5" rx="2.5" fill="white"/>
</svg>
