<svg width="100" height="100" viewBox="0 0 100 100" fill="none" xmlns="http://www.w3.org/2000/svg">
<path d="M67.5027 15.25V19.5H72.9979L50.5027 41.9953L42.0027 33.4953L21.3753 54.1226L24.3801 57.1274L42.0027 39.5047L50.5027 48.0047L76.0027 22.5048V28H80.2527V15.25H67.5027Z" fill="#FF3964"/>
<path d="M23.5833 60.5834C22.0185 60.5834 20.75 61.8519 20.75 63.4167V71.9167C20.75 73.4815 22.0185 74.75 23.5833 74.75H34.9167C36.4815 74.75 37.75 73.4815 37.75 71.9167V63.4167C37.75 61.8519 36.4815 60.5834 34.9167 60.5834H23.5833Z" fill="#5956D6"/>
<path d="M44.8333 54.7538C43.2685 54.7538 42 56.0223 42 57.5871V71.9167C42 73.4815 43.2685 74.75 44.8333 74.75H56.1667C57.7315 74.75 59 73.4815 59 71.9167V57.5871C59 56.0223 57.7315 54.7538 56.1667 54.7538H44.8333Z" fill="#5956D6"/>
<path d="M66.0833 42.0038C64.5185 42.0038 63.25 43.2723 63.25 44.8371V71.9167C63.25 73.4815 64.5185 74.75 66.0833 74.75H77.4167C78.9815 74.75 80.25 73.4815 80.25 71.9167V44.8371C80.25 43.2723 78.9815 42.0038 77.4167 42.0038H66.0833Z" fill="#5956D6"/>
</svg>
