<svg width="100" height="100" viewBox="0 0 100 100" fill="none" xmlns="http://www.w3.org/2000/svg">
<path d="M12.5 91.6667H87.5" stroke="#5E34F1" stroke-width="6.25" stroke-linecap="round" stroke-linejoin="round"/>
<path d="M23.3332 34.916H16.6667C14.375 34.916 12.5 36.791 12.5 39.0827V74.9993C12.5 77.291 14.375 79.166 16.6667 79.166H23.3332C25.6249 79.166 27.4999 77.291 27.4999 74.9993V39.0827C27.4999 36.791 25.6249 34.916 23.3332 34.916Z" fill="#5E34F1" fill-opacity="0.4"/>
<path d="M53.3332 21.6245H46.6667C44.375 21.6245 42.5 23.4995 42.5 25.7912V74.9995C42.5 77.2912 44.375 79.1662 46.6667 79.1662H53.3332C55.6249 79.1662 57.4999 77.2912 57.4999 74.9995V25.7912C57.4999 23.4995 55.6249 21.6245 53.3332 21.6245Z" fill="#5E34F1"/>
<path d="M83.3332 8.33301H76.6667C74.375 8.33301 72.5 10.208 72.5 12.4997V74.9997C72.5 77.2913 74.375 79.1663 76.6667 79.1663H83.3332C85.6249 79.1663 87.4999 77.2913 87.4999 74.9997V12.4997C87.4999 10.208 85.6249 8.33301 83.3332 8.33301Z" fill="#5E34F1" fill-opacity="0.4"/>
</svg>
