<svg width="100" height="100" viewBox="0 0 100 100" fill="none" xmlns="http://www.w3.org/2000/svg">
<rect x="2" y="31" width="96" height="37" rx="10" fill="#5E34F1"/>
<path d="M8.92 46.36H10.592V47.984H8.92V46.36ZM8.92 49.24H10.592V57.88H8.92V49.24ZM13.6356 55V43.48H15.3076V48.448H21.0676V43.48H22.7476V55H21.0676V50.024H15.3076V55H13.6356ZM28.747 55.24C27.883 55.24 27.1337 55.0453 26.499 54.656C25.8643 54.2667 25.3737 53.7307 25.027 53.048C24.6857 52.36 24.515 51.568 24.515 50.672C24.515 49.7707 24.691 48.9787 25.043 48.296C25.395 47.608 25.8883 47.0747 26.523 46.696C27.1577 46.312 27.899 46.12 28.747 46.12C29.611 46.12 30.3603 46.3147 30.995 46.704C31.6297 47.0933 32.1203 47.6293 32.467 48.312C32.8137 48.9947 32.987 49.7813 32.987 50.672C32.987 51.5733 32.811 52.368 32.459 53.056C32.1123 53.7387 31.6217 54.2747 30.987 54.664C30.3523 55.048 29.6057 55.24 28.747 55.24ZM28.747 53.664C29.5737 53.664 30.1897 53.3867 30.595 52.832C31.0057 52.272 31.211 51.552 31.211 50.672C31.211 49.7707 31.003 49.0507 30.587 48.512C30.1763 47.968 29.563 47.696 28.747 47.696C28.187 47.696 27.7257 47.824 27.363 48.08C27.0003 48.3307 26.731 48.68 26.555 49.128C26.379 49.5707 26.291 50.0853 26.291 50.672C26.291 51.5787 26.499 52.304 26.915 52.848C27.331 53.392 27.9417 53.664 28.747 53.664ZM34.905 55V43.24H36.577V55H34.905ZM41.4194 55.24C40.7794 55.24 40.2434 55.1227 39.8114 54.888C39.3794 54.648 39.0514 54.3333 38.8274 53.944C38.6087 53.5493 38.4994 53.1173 38.4994 52.648C38.4994 52.2107 38.5767 51.8267 38.7314 51.496C38.886 51.1653 39.1154 50.8853 39.4194 50.656C39.7234 50.4213 40.0967 50.232 40.5394 50.088C40.9234 49.976 41.358 49.8773 41.8434 49.792C42.3287 49.7067 42.838 49.6267 43.3714 49.552C43.91 49.4773 44.4434 49.4027 44.9714 49.328L44.3634 49.664C44.374 48.9867 44.23 48.4853 43.9314 48.16C43.638 47.8293 43.1314 47.664 42.4114 47.664C41.958 47.664 41.542 47.7707 41.1634 47.984C40.7847 48.192 40.5207 48.5387 40.3714 49.024L38.8114 48.544C39.0247 47.8027 39.43 47.2133 40.0274 46.776C40.63 46.3387 41.43 46.12 42.4274 46.12C43.2007 46.12 43.8727 46.2533 44.4434 46.52C45.0194 46.7813 45.4407 47.1973 45.7074 47.768C45.846 48.0507 45.9314 48.3493 45.9634 48.664C45.9954 48.9787 46.0114 49.3173 46.0114 49.68V55H44.5314V53.024L44.8194 53.28C44.462 53.9413 44.006 54.4347 43.4514 54.76C42.902 55.08 42.2247 55.24 41.4194 55.24ZM41.7154 53.872C42.19 53.872 42.598 53.7893 42.9394 53.624C43.2807 53.4533 43.5554 53.2373 43.7634 52.976C43.9714 52.7147 44.1074 52.4427 44.1714 52.16C44.262 51.904 44.3127 51.616 44.3234 51.296C44.3394 50.976 44.3474 50.72 44.3474 50.528L44.8914 50.728C44.3634 50.808 43.8834 50.88 43.4514 50.944C43.0194 51.008 42.6274 51.072 42.2754 51.136C41.9287 51.1947 41.6194 51.2667 41.3474 51.352C41.118 51.432 40.9127 51.528 40.7314 51.64C40.5554 51.752 40.414 51.888 40.3074 52.048C40.206 52.208 40.1554 52.4027 40.1554 52.632C40.1554 52.856 40.2114 53.064 40.3234 53.256C40.4354 53.4427 40.606 53.592 40.8354 53.704C41.0647 53.816 41.358 53.872 41.7154 53.872ZM53.4839 55.232C52.6412 55.232 51.9319 55.008 51.3559 54.56C50.7852 54.112 50.3905 53.5093 50.1719 52.752L51.8279 52.36C51.9025 52.7173 52.0919 53.024 52.3959 53.28C52.7052 53.5307 53.0492 53.656 53.4279 53.656C53.6785 53.656 53.9399 53.592 54.2119 53.464C54.4839 53.336 54.6865 53.128 54.8199 52.84C54.9105 52.648 54.9639 52.4293 54.9799 52.184C54.9959 51.9333 55.0039 51.6427 55.0039 51.312V43.48H56.6999V51.312C56.6999 51.6533 56.6972 51.9573 56.6919 52.224C56.6919 52.4907 56.6652 52.7413 56.6119 52.976C56.5639 53.2107 56.4679 53.4533 56.3239 53.704C56.0199 54.232 55.6199 54.6187 55.1239 54.864C54.6279 55.1093 54.0812 55.232 53.4839 55.232ZM62.3604 55.232C61.763 55.232 61.2617 55.136 60.8564 54.944C60.451 54.752 60.1204 54.5013 59.8644 54.192C59.6137 53.8773 59.4217 53.536 59.2884 53.168C59.155 52.8 59.0644 52.44 59.0164 52.088C58.9684 51.736 58.9444 51.4267 58.9444 51.16V46.36H60.6404V50.608C60.6404 50.944 60.667 51.2907 60.7204 51.648C60.779 52 60.8857 52.328 61.0404 52.632C61.2004 52.936 61.4217 53.1813 61.7044 53.368C61.9924 53.5547 62.3657 53.648 62.8244 53.648C63.123 53.648 63.4057 53.6 63.6724 53.504C63.939 53.4027 64.171 53.2427 64.3684 53.024C64.571 52.8053 64.7284 52.5173 64.8404 52.16C64.9577 51.8027 65.0164 51.368 65.0164 50.856L66.0564 51.248C66.0564 52.032 65.9097 52.7253 65.6164 53.328C65.323 53.9253 64.9017 54.392 64.3524 54.728C63.803 55.064 63.139 55.232 62.3604 55.232ZM65.2164 55V52.504H65.0164V46.36H66.7044V55H65.2164ZM71.3881 55.24C70.7481 55.24 70.2121 55.1227 69.7801 54.888C69.3481 54.648 69.0201 54.3333 68.7961 53.944C68.5775 53.5493 68.4681 53.1173 68.4681 52.648C68.4681 52.2107 68.5455 51.8267 68.7001 51.496C68.8548 51.1653 69.0841 50.8853 69.3881 50.656C69.6921 50.4213 70.0655 50.232 70.5081 50.088C70.8921 49.976 71.3268 49.8773 71.8121 49.792C72.2975 49.7067 72.8068 49.6267 73.3401 49.552C73.8788 49.4773 74.4121 49.4027 74.9401 49.328L74.3321 49.664C74.3428 48.9867 74.1988 48.4853 73.9001 48.16C73.6068 47.8293 73.1001 47.664 72.3801 47.664C71.9268 47.664 71.5108 47.7707 71.1321 47.984C70.7535 48.192 70.4895 48.5387 70.3401 49.024L68.7801 48.544C68.9935 47.8027 69.3988 47.2133 69.9961 46.776C70.5988 46.3387 71.3988 46.12 72.3961 46.12C73.1695 46.12 73.8415 46.2533 74.4121 46.52C74.9881 46.7813 75.4095 47.1973 75.6761 47.768C75.8148 48.0507 75.9001 48.3493 75.9321 48.664C75.9641 48.9787 75.9801 49.3173 75.9801 49.68V55H74.5001V53.024L74.7881 53.28C74.4308 53.9413 73.9748 54.4347 73.4201 54.76C72.8708 55.08 72.1935 55.24 71.3881 55.24ZM71.6841 53.872C72.1588 53.872 72.5668 53.7893 72.9081 53.624C73.2495 53.4533 73.5241 53.2373 73.7321 52.976C73.9401 52.7147 74.0761 52.4427 74.1401 52.16C74.2308 51.904 74.2815 51.616 74.2921 51.296C74.3081 50.976 74.3161 50.72 74.3161 50.528L74.8601 50.728C74.3321 50.808 73.8521 50.88 73.4201 50.944C72.9881 51.008 72.5961 51.072 72.2441 51.136C71.8975 51.1947 71.5881 51.2667 71.3161 51.352C71.0868 51.432 70.8815 51.528 70.7001 51.64C70.5241 51.752 70.3828 51.888 70.2761 52.048C70.1748 52.208 70.1241 52.4027 70.1241 52.632C70.1241 52.856 70.1801 53.064 70.2921 53.256C70.4041 53.4427 70.5748 53.592 70.8041 53.704C71.0335 53.816 71.3268 53.872 71.6841 53.872ZM84.1215 55V50.752C84.1215 50.416 84.0922 50.072 84.0335 49.72C83.9802 49.3627 83.8735 49.032 83.7135 48.728C83.5588 48.424 83.3375 48.1787 83.0495 47.992C82.7668 47.8053 82.3962 47.712 81.9375 47.712C81.6388 47.712 81.3562 47.7627 81.0895 47.864C80.8228 47.96 80.5882 48.1173 80.3855 48.336C80.1882 48.5547 80.0308 48.8427 79.9135 49.2C79.8015 49.5573 79.7455 49.992 79.7455 50.504L78.7055 50.112C78.7055 49.328 78.8522 48.6373 79.1455 48.04C79.4388 47.4373 79.8602 46.968 80.4095 46.632C80.9588 46.296 81.6228 46.128 82.4015 46.128C82.9988 46.128 83.5002 46.224 83.9055 46.416C84.3108 46.608 84.6388 46.8613 84.8895 47.176C85.1455 47.4853 85.3402 47.824 85.4735 48.192C85.6068 48.56 85.6975 48.92 85.7455 49.272C85.7935 49.624 85.8175 49.9333 85.8175 50.2V55H84.1215ZM78.0495 55V46.36H79.5455V48.856H79.7455V55H78.0495ZM88.7013 55V53.376H90.3733V55H88.7013ZM88.7013 52.12V43.48H90.3733V52.12H88.7013Z" fill="white"/>
</svg>
