<svg width="100" height="100" viewBox="0 0 100 100" fill="none" xmlns="http://www.w3.org/2000/svg">
<rect x="11" y="31" width="78" height="37" rx="10" fill="#838383"/>
<path d="M43.12 55V43.48H44.792V48.448H50.552V43.48H52.232V55H50.552V50.024H44.792V55H43.12ZM54.6394 44.944V43.32H56.3114V44.944H54.6394ZM54.6394 55V46.36H56.3114V55H54.6394Z" fill="white"/>
<path d="M76.1278 50L69.5856 58.2109L66.1644 55.3359L65 56.7103L69.8437 60.7737L77.5323 51.1224L76.1278 50Z" fill="white"/>
<path d="M81.2456 50L74.6973 58.2109L73.719 57.3826L72.5605 58.7631L74.9554 60.7797L82.65 51.1224L81.2456 50Z" fill="white"/>
<path opacity="0.4" d="M23.922 21V17.43L21 12.36H22.464L24.558 15.99L26.652 12.36H28.116L25.194 17.43V21H23.922ZM30.8663 21.18C30.2223 21.18 29.6563 21.04 29.1683 20.76C28.6843 20.476 28.3063 20.082 28.0343 19.578C27.7663 19.07 27.6323 18.482 27.6323 17.814C27.6323 17.106 27.7643 16.492 28.0283 15.972C28.2963 15.452 28.6683 15.05 29.1443 14.766C29.6203 14.482 30.1743 14.34 30.8063 14.34C31.4663 14.34 32.0283 14.494 32.4923 14.802C32.9563 15.106 33.3023 15.54 33.5303 16.104C33.7623 16.668 33.8543 17.338 33.8063 18.114H32.5523V17.658C32.5443 16.906 32.4003 16.35 32.1203 15.99C31.8443 15.63 31.4223 15.45 30.8543 15.45C30.2263 15.45 29.7543 15.648 29.4383 16.044C29.1223 16.44 28.9643 17.012 28.9643 17.76C28.9643 18.472 29.1223 19.024 29.4383 19.416C29.7543 19.804 30.2103 19.998 30.8063 19.998C31.1983 19.998 31.5363 19.91 31.8203 19.734C32.1083 19.554 32.3323 19.298 32.4923 18.966L33.7223 19.356C33.4703 19.936 33.0883 20.386 32.5763 20.706C32.0643 21.022 31.4943 21.18 30.8663 21.18ZM28.5563 18.114V17.136H33.1823V18.114H28.5563ZM37.6305 21.174C36.8425 21.174 36.2005 21 35.7045 20.652C35.2085 20.304 34.9045 19.814 34.7925 19.182L36.0765 18.984C36.1565 19.32 36.3405 19.586 36.6285 19.782C36.9205 19.974 37.2825 20.07 37.7145 20.07C38.1065 20.07 38.4125 19.99 38.6325 19.83C38.8565 19.67 38.9685 19.45 38.9685 19.17C38.9685 19.006 38.9285 18.874 38.8485 18.774C38.7725 18.67 38.6105 18.572 38.3625 18.48C38.1145 18.388 37.7365 18.274 37.2285 18.138C36.6725 17.994 36.2305 17.84 35.9025 17.676C35.5785 17.508 35.3465 17.314 35.2065 17.094C35.0705 16.87 35.0025 16.6 35.0025 16.284C35.0025 15.892 35.1065 15.55 35.3145 15.258C35.5225 14.966 35.8145 14.74 36.1905 14.58C36.5705 14.42 37.0145 14.34 37.5225 14.34C38.0185 14.34 38.4605 14.418 38.8485 14.574C39.2365 14.73 39.5505 14.952 39.7905 15.24C40.0305 15.524 40.1745 15.858 40.2225 16.242L38.9385 16.476C38.8945 16.164 38.7485 15.918 38.5005 15.738C38.2525 15.558 37.9305 15.46 37.5345 15.444C37.1545 15.428 36.8465 15.492 36.6105 15.636C36.3745 15.776 36.2565 15.97 36.2565 16.218C36.2565 16.362 36.3005 16.484 36.3885 16.584C36.4805 16.684 36.6565 16.78 36.9165 16.872C37.1765 16.964 37.5605 17.074 38.0685 17.202C38.6125 17.342 39.0445 17.498 39.3645 17.67C39.6845 17.838 39.9125 18.04 40.0485 18.276C40.1885 18.508 40.2585 18.79 40.2585 19.122C40.2585 19.762 40.0245 20.264 39.5565 20.628C39.0925 20.992 38.4505 21.174 37.6305 21.174ZM45.2941 21C44.8861 21.08 44.4861 21.114 44.0941 21.102C43.7021 21.09 43.3521 21.014 43.0441 20.874C42.7361 20.734 42.5041 20.514 42.3481 20.214C42.2081 19.946 42.1321 19.674 42.1201 19.398C42.1121 19.118 42.1081 18.802 42.1081 18.45V12.72H43.3681V18.39C43.3681 18.65 43.3701 18.876 43.3741 19.068C43.3821 19.26 43.4241 19.422 43.5001 19.554C43.6441 19.802 43.8721 19.944 44.1841 19.98C44.5001 20.012 44.8701 19.998 45.2941 19.938V21ZM40.8661 15.528V14.52H45.2941V15.528H40.8661ZM49.2413 21.18C48.5973 21.18 48.0313 21.04 47.5433 20.76C47.0593 20.476 46.6813 20.082 46.4093 19.578C46.1413 19.07 46.0073 18.482 46.0073 17.814C46.0073 17.106 46.1393 16.492 46.4033 15.972C46.6713 15.452 47.0433 15.05 47.5193 14.766C47.9953 14.482 48.5493 14.34 49.1813 14.34C49.8413 14.34 50.4033 14.494 50.8673 14.802C51.3313 15.106 51.6773 15.54 51.9053 16.104C52.1373 16.668 52.2293 17.338 52.1813 18.114H50.9273V17.658C50.9193 16.906 50.7753 16.35 50.4953 15.99C50.2193 15.63 49.7973 15.45 49.2293 15.45C48.6013 15.45 48.1293 15.648 47.8133 16.044C47.4973 16.44 47.3393 17.012 47.3393 17.76C47.3393 18.472 47.4973 19.024 47.8133 19.416C48.1293 19.804 48.5853 19.998 49.1813 19.998C49.5733 19.998 49.9113 19.91 50.1953 19.734C50.4833 19.554 50.7073 19.298 50.8673 18.966L52.0973 19.356C51.8453 19.936 51.4633 20.386 50.9513 20.706C50.4393 21.022 49.8693 21.18 49.2413 21.18ZM46.9313 18.114V17.136H51.5573V18.114H46.9313ZM53.5275 21V14.52H54.6435V16.092L54.4875 15.888C54.5675 15.68 54.6715 15.49 54.7995 15.318C54.9275 15.142 55.0755 14.998 55.2435 14.886C55.4075 14.766 55.5895 14.674 55.7895 14.61C55.9935 14.542 56.2015 14.502 56.4135 14.49C56.6255 14.474 56.8295 14.484 57.0255 14.52V15.696C56.8135 15.64 56.5775 15.624 56.3175 15.648C56.0615 15.672 55.8255 15.754 55.6095 15.894C55.4055 16.026 55.2435 16.186 55.1235 16.374C55.0075 16.562 54.9235 16.772 54.8715 17.004C54.8195 17.232 54.7935 17.474 54.7935 17.73V21H53.5275ZM60.6249 21.18C60.0209 21.18 59.4989 21.03 59.0589 20.73C58.6229 20.43 58.2849 20.022 58.0449 19.506C57.8089 18.986 57.6909 18.402 57.6909 17.754C57.6909 17.102 57.8109 16.52 58.0509 16.008C58.2909 15.492 58.6309 15.086 59.0709 14.79C59.5149 14.49 60.0409 14.34 60.6489 14.34C61.2609 14.34 61.7749 14.49 62.1909 14.79C62.6109 15.086 62.9269 15.492 63.1389 16.008C63.3549 16.524 63.4629 17.106 63.4629 17.754C63.4629 18.402 63.3549 18.984 63.1389 19.5C62.9229 20.016 62.6049 20.426 62.1849 20.73C61.7649 21.03 61.2449 21.18 60.6249 21.18ZM60.7989 20.046C61.2109 20.046 61.5469 19.948 61.8069 19.752C62.0669 19.556 62.2569 19.286 62.3769 18.942C62.4969 18.598 62.5569 18.202 62.5569 17.754C62.5569 17.306 62.4949 16.91 62.3709 16.566C62.2509 16.222 62.0629 15.954 61.8069 15.762C61.5549 15.57 61.2329 15.474 60.8409 15.474C60.4249 15.474 60.0829 15.576 59.8149 15.78C59.5469 15.984 59.3469 16.258 59.2149 16.602C59.0869 16.946 59.0229 17.33 59.0229 17.754C59.0229 18.182 59.0869 18.57 59.2149 18.918C59.3469 19.262 59.5429 19.536 59.8029 19.74C60.0669 19.944 60.3989 20.046 60.7989 20.046ZM62.5569 21V16.338H62.4129V12.36H63.6729V21H62.5569ZM67.1817 21.18C66.7017 21.18 66.2997 21.092 65.9757 20.916C65.6517 20.736 65.4057 20.5 65.2377 20.208C65.0737 19.912 64.9917 19.588 64.9917 19.236C64.9917 18.908 65.0497 18.62 65.1657 18.372C65.2817 18.124 65.4537 17.914 65.6817 17.742C65.9097 17.566 66.1897 17.424 66.5217 17.316C66.8097 17.232 67.1357 17.158 67.4997 17.094C67.8637 17.03 68.2457 16.97 68.6457 16.914C69.0497 16.858 69.4497 16.802 69.8457 16.746L69.3897 16.998C69.3977 16.49 69.2897 16.114 69.0657 15.87C68.8457 15.622 68.4657 15.498 67.9257 15.498C67.5857 15.498 67.2737 15.578 66.9897 15.738C66.7057 15.894 66.5077 16.154 66.3957 16.518L65.2257 16.158C65.3857 15.602 65.6897 15.16 66.1377 14.832C66.5897 14.504 67.1897 14.34 67.9377 14.34C68.5177 14.34 69.0217 14.44 69.4497 14.64C69.8817 14.836 70.1977 15.148 70.3977 15.576C70.5017 15.788 70.5657 16.012 70.5897 16.248C70.6137 16.484 70.6257 16.738 70.6257 17.01V21H69.5157V19.518L69.7317 19.71C69.4637 20.206 69.1217 20.576 68.7057 20.82C68.2937 21.06 67.7857 21.18 67.1817 21.18ZM67.4037 20.154C67.7597 20.154 68.0657 20.092 68.3217 19.968C68.5777 19.84 68.7837 19.678 68.9397 19.482C69.0957 19.286 69.1977 19.082 69.2457 18.87C69.3137 18.678 69.3517 18.462 69.3597 18.222C69.3717 17.982 69.3777 17.79 69.3777 17.646L69.7857 17.796C69.3897 17.856 69.0297 17.91 68.7057 17.958C68.3817 18.006 68.0877 18.054 67.8237 18.102C67.5637 18.146 67.3317 18.2 67.1277 18.264C66.9557 18.324 66.8017 18.396 66.6657 18.48C66.5337 18.564 66.4277 18.666 66.3477 18.786C66.2717 18.906 66.2337 19.052 66.2337 19.224C66.2337 19.392 66.2757 19.548 66.3597 19.692C66.4437 19.832 66.5717 19.944 66.7437 20.028C66.9157 20.112 67.1357 20.154 67.4037 20.154ZM72.6965 23.88L73.9505 20.466L73.9685 21.474L71.1425 14.52H72.4505L74.5625 19.89H74.1785L76.1945 14.52H77.4665L73.8905 23.88H72.6965Z" fill="black"/>
</svg>
