<svg width="100" height="100" viewBox="0 0 100 100" fill="none" xmlns="http://www.w3.org/2000/svg">
<path d="M51.0417 86.4583C70.6018 86.4583 86.4583 70.6018 86.4583 51.0417C86.4583 31.4816 70.6018 15.625 51.0417 15.625C31.4816 15.625 15.625 31.4816 15.625 51.0417C15.625 70.6018 31.4816 86.4583 51.0417 86.4583Z" fill="#5E34F1" fill-opacity="0.4" stroke="#5E34F1" stroke-width="6.25"/>
<path d="M51.0413 65.6249C59.0955 65.6249 65.6247 59.0957 65.6247 51.0416C65.6247 42.9874 59.0955 36.4583 51.0413 36.4583C42.9872 36.4583 36.458 42.9874 36.458 51.0416C36.458 59.0957 42.9872 65.6249 51.0413 65.6249Z" fill="white" stroke="#5E34F1" stroke-width="6.25"/>
<path d="M51.042 21.0415V7.2915" stroke="#5E34F1" stroke-width="6.25" stroke-linecap="round" stroke-linejoin="round"/>
<path d="M51.042 94.7925V81.0425" stroke="#5E34F1" stroke-width="6.25" stroke-linecap="round" stroke-linejoin="round"/>
<path d="M21.042 51.0415H7.29199" stroke="#5E34F1" stroke-width="6.25" stroke-linecap="round" stroke-linejoin="round"/>
<path d="M94.791 51.0415H81.041" stroke="#5E34F1" stroke-width="6.25" stroke-linecap="round" stroke-linejoin="round"/>
</svg>
