<svg width="100" height="100" viewBox="0 0 100 100" fill="none" xmlns="http://www.w3.org/2000/svg">
<path opacity="0.4" d="M8.33337 53.6668V46.3335C8.33337 42.0001 11.875 38.4168 16.25 38.4168C23.7917 38.4168 26.875 33.0835 23.0834 26.5418C20.9167 22.7918 22.2084 17.9168 26 15.7501L33.2084 11.6251C36.5 9.66681 40.75 10.8335 42.7084 14.1251L43.1667 14.9168C46.9167 21.4585 53.0834 21.4585 56.875 14.9168L57.3334 14.1251C59.2917 10.8335 63.5417 9.66681 66.8334 11.6251L74.0417 15.7501C77.8334 17.9168 79.125 22.7918 76.9584 26.5418C73.1667 33.0835 76.25 38.4168 83.7917 38.4168C88.125 38.4168 91.7084 41.9585 91.7084 46.3335V53.6668C91.7084 58.0001 88.1667 61.5835 83.7917 61.5835C76.25 61.5835 73.1667 66.9168 76.9584 73.4585C79.125 77.2501 77.8334 82.0835 74.0417 84.2501L66.8334 88.3751C63.5417 90.3335 59.2917 89.1668 57.3334 85.8751L56.875 85.0835C53.125 78.5418 46.9584 78.5418 43.1667 85.0835L42.7084 85.8751C40.75 89.1668 36.5 90.3335 33.2084 88.3751L26 84.2501C22.2084 82.0835 20.9167 77.2085 23.0834 73.4585C26.875 66.9168 23.7917 61.5835 16.25 61.5835C11.875 61.5835 8.33337 58.0001 8.33337 53.6668Z" fill="#5E34F1"/>
<path d="M50 63.5418C57.4789 63.5418 63.5417 57.479 63.5417 50.0002C63.5417 42.5213 57.4789 36.4585 50 36.4585C42.5212 36.4585 36.4584 42.5213 36.4584 50.0002C36.4584 57.479 42.5212 63.5418 50 63.5418Z" fill="#5E34F1"/>
</svg>
