<svg width="100" height="100" viewBox="0 0 100 100" fill="none" xmlns="http://www.w3.org/2000/svg">
<path d="M68.5996 49.6C68.5996 40.9844 61.6152 34 52.9996 34H40.5996C31.3212 34 23.7996 41.5216 23.7996 50.8V56.1599C23.7996 59.6391 21.5511 62.7195 18.2373 63.7799C17.4467 64.0329 17.6289 65.2 18.459 65.2H52.9996C61.6153 65.2 68.5996 58.2156 68.5996 49.6Z" fill="#838383"/>
<circle cx="37.8004" cy="50.0001" r="2.4" fill="white"/>
<circle cx="46.6004" cy="50.0001" r="2.4" fill="white"/>
<circle cx="55.4004" cy="50.0001" r="2.4" fill="white"/>
<path d="M76.91 58.9901C74.75 56.5301 71.54 55 68 55C61.37 55 56 60.37 56 67C56 69.25 56.63 71.38 57.74 73.18C58.34 74.2 59.12 75.1299 60.02 75.9099C62.12 77.8299 64.91 79 68 79C72.38 79 76.19 76.66 78.26 73.18C79.37 71.38 80 69.25 80 67C80 63.94 78.83 61.1201 76.91 58.9901ZM72.8 71.7401C72.35 72.1901 71.78 72.4 71.21 72.4C70.64 72.4 70.07 72.1901 69.62 71.7401L68.03 70.15L66.38 71.7999C65.93 72.2499 65.36 72.46 64.79 72.46C64.22 72.46 63.65 72.2499 63.2 71.7999C62.33 70.9299 62.33 69.4899 63.2 68.6199L64.85 66.97L63.26 65.3801C62.39 64.5101 62.39 63.0701 63.26 62.2001C64.13 61.3301 65.57 61.3301 66.44 62.2001L68.03 63.79L69.53 62.29C70.4 61.42 71.84 61.42 72.71 62.29C73.58 63.16 73.58 64.6 72.71 65.47L71.21 66.97L72.8 68.5601C73.67 69.4301 73.67 70.8401 72.8 71.7401Z" fill="#676767"/>
</svg>
