<svg width="100" height="100" viewBox="0 0 100 100" fill="none" xmlns="http://www.w3.org/2000/svg">
<path opacity="0.4" d="M50 91.6665C69.9513 91.6665 86.125 75.4928 86.125 55.5415C86.125 35.5902 69.9513 19.4165 50 19.4165C30.0487 19.4165 13.875 35.5902 13.875 55.5415C13.875 75.4928 30.0487 91.6665 50 91.6665Z" fill="#5E34F1"/>
<path d="M50 57.2918C48.2917 57.2918 46.875 55.8752 46.875 54.1668V33.3335C46.875 31.6252 48.2917 30.2085 50 30.2085C51.7083 30.2085 53.125 31.6252 53.125 33.3335V54.1668C53.125 55.8752 51.7083 57.2918 50 57.2918Z" fill="#5E34F1"/>
<path d="M62.0416 14.3752H37.9583C36.2916 14.3752 34.9583 13.0418 34.9583 11.3752C34.9583 9.7085 36.2916 8.3335 37.9583 8.3335H62.0416C63.7083 8.3335 65.0416 9.66683 65.0416 11.3335C65.0416 13.0002 63.7083 14.3752 62.0416 14.3752Z" fill="#5E34F1"/>
</svg>
