<svg width="93" height="69" viewBox="0 0 93 69" fill="none" xmlns="http://www.w3.org/2000/svg">
<path d="M91.4411 0.467839C92.0147 0.535705 92.4046 1.08032 92.292 1.64687L90.3056 11.6397C90.2086 12.1273 89.767 12.4683 89.2702 12.4507C83.5682 12.2489 79.3668 13.1302 76.6659 15.0948C73.8299 17.1577 72.0968 19.9262 71.4666 23.4005C70.8849 26.6073 70.7059 30.0455 70.9296 33.7149C70.9614 34.2359 71.3966 34.6375 71.9186 34.6375L91.5 34.6375C92.0523 34.6375 92.5 35.0852 92.5 35.6375L92.5 68C92.5 68.5523 92.0523 69 91.5 69L53.0875 69C52.5352 69 52.0875 68.5523 52.0875 68L52.0875 28.1233C52.0875 18.1348 55.7113 10.6434 62.9587 5.64921C70.1498 0.799252 79.6439 -0.927872 91.4411 0.467839ZM39.8535 0.467843C40.4272 0.53571 40.8171 1.08032 40.7045 1.64687L38.718 11.6397C38.6211 12.1273 38.1795 12.4683 37.6827 12.4508C31.9807 12.2489 27.7793 13.1302 25.0783 15.0948C22.2424 17.1577 20.5093 19.9262 19.8791 23.4005C19.2974 26.6073 19.1184 30.0455 19.3421 33.7149C19.3738 34.2359 19.8091 34.6375 20.3311 34.6375L39.9125 34.6375C40.4648 34.6375 40.9125 35.0852 40.9125 35.6375L40.9125 68C40.9125 68.5523 40.4648 69 39.9125 69L1.50001 69C0.94772 69 0.500006 68.5523 0.500006 68L0.500002 28.1233C0.500002 18.1348 4.12373 10.6435 11.3712 5.64922C18.5623 0.799257 28.0564 -0.927867 39.8535 0.467843Z" fill="url(#paint0_linear_1_16090)"/>
<defs>
<linearGradient id="paint0_linear_1_16090" x1="46.5" y1="69" x2="46.5" y2="-4.02145e-06" gradientUnits="userSpaceOnUse">
<stop stop-color="#BDBBEF" stop-opacity="0.2"/>
<stop offset="1" stop-color="#BDBBEF" stop-opacity="0.7"/>
</linearGradient>
</defs>
</svg>
