<svg width="156" height="129" viewBox="0 0 156 129" fill="none" xmlns="http://www.w3.org/2000/svg">
<path d="M1.55966 128.014C0.987274 127.942 0.594559 127.398 0.706406 126.832L4.72449 106.502C4.82099 106.013 5.26317 105.671 5.76036 105.693C16.7372 106.175 24.7941 104.537 29.9308 100.779C35.202 96.9226 38.4233 91.7466 39.5947 85.2513C40.7179 79.0228 41.0334 72.3276 40.5409 65.1659C40.5051 64.645 40.0703 64.243 39.5482 64.243L1.49999 64.243C0.947714 64.243 0.49999 63.7952 0.49999 63.243L0.499996 1.00001C0.499996 0.447724 0.947719 3.48634e-07 1.5 3.96916e-07L74.6145 6.78879e-06C75.1668 6.83707e-06 75.6145 0.44773 75.6145 1.00001L75.6145 76.4217C75.6145 95.0958 68.8791 109.101 55.4082 118.438C41.8581 127.631 23.9086 130.823 1.55966 128.014ZM97.4452 128.014C96.8728 127.942 96.4801 127.398 96.5919 126.833L100.61 106.502C100.706 106.013 101.149 105.671 101.646 105.693C112.623 106.175 120.68 104.537 125.816 100.779C131.088 96.9226 134.309 91.7467 135.48 85.2513C136.603 79.0228 136.919 72.3276 136.426 65.1659C136.391 64.645 135.956 64.243 135.434 64.243L97.3855 64.243C96.8332 64.243 96.3855 63.7953 96.3855 63.243L96.3855 1.00002C96.3855 0.447732 96.8332 8.73121e-06 97.3855 8.77949e-06L170.5 1.51714e-05C171.052 1.52196e-05 171.5 0.447739 171.5 1.00002L171.5 76.4217C171.5 95.0958 164.765 109.101 151.294 118.438C137.744 127.631 119.794 130.823 97.4452 128.014Z" fill="url(#paint0_linear_1_16089)"/>
<defs>
<linearGradient id="paint0_linear_1_16089" x1="86" y1="7.78414e-06" x2="86" y2="129" gradientUnits="userSpaceOnUse">
<stop stop-color="#BDBBEF" stop-opacity="0.2"/>
<stop offset="1" stop-color="#BDBBEF" stop-opacity="0.1"/>
</linearGradient>
</defs>
</svg>
