<svg width="104" height="130" viewBox="0 0 104 130" fill="none" xmlns="http://www.w3.org/2000/svg">
<g filter="url(#filter0_dddd_4813_11548)">
<rect x="16" y="3" width="72" height="72" rx="20" fill="white"/>
<path d="M63.36 16H46.62C39.34 16 35 20.34 35 27.62V44.36C35 51.64 39.34 55.98 46.62 55.98H63.36C70.64 55.98 74.98 51.64 74.98 44.36V27.62C74.98 20.34 70.64 16 63.36 16Z" fill="#FF3964"/>
<path d="M57.36 22H40.62C33.34 22 29 26.34 29 33.62V50.36C29 57.64 33.34 61.98 40.62 61.98H57.36C64.64 61.98 68.98 57.64 68.98 50.36V33.62C68.98 26.34 64.64 22 57.36 22Z" fill="#5956D6"/>
<path d="M36.98 47.78C36.16 47.78 35.48 47.1 35.48 46.28V37.7C35.48 36.88 36.16 36.2 36.98 36.2C37.8 36.2 38.48 36.88 38.48 37.7V46.28C38.48 47.12 37.8 47.78 36.98 47.78Z" fill="white"/>
<path d="M42.98 50.64C42.16 50.64 41.48 49.96 41.48 49.14V34.86C41.48 34.04 42.16 33.36 42.98 33.36C43.8 33.36 44.48 34.04 44.48 34.86V49.14C44.48 49.98 43.8 50.64 42.98 50.64Z" fill="white"/>
<path d="M48.98 53.5C48.16 53.5 47.48 52.82 47.48 52V32C47.48 31.18 48.16 30.5 48.98 30.5C49.8 30.5 50.48 31.18 50.48 32V52C50.48 52.82 49.8 53.5 48.98 53.5Z" fill="white"/>
<path d="M54.98 50.64C54.16 50.64 53.48 49.96 53.48 49.14V34.86C53.48 34.04 54.16 33.36 54.98 33.36C55.8 33.36 56.48 34.04 56.48 34.86V49.14C56.48 49.98 55.8 50.64 54.98 50.64Z" fill="white"/>
<path d="M60.98 47.78C60.16 47.78 59.48 47.1 59.48 46.28V37.7C59.48 36.88 60.16 36.2 60.98 36.2C61.8 36.2 62.48 36.88 62.48 37.7V46.28C62.48 47.12 61.8 47.78 60.98 47.78Z" fill="white"/>
</g>
<defs>
<filter id="filter0_dddd_4813_11548" x="0" y="0" width="104" height="130" filterUnits="userSpaceOnUse" color-interpolation-filters="sRGB">
<feFlood flood-opacity="0" result="BackgroundImageFix"/>
<feColorMatrix in="SourceAlpha" type="matrix" values="0 0 0 0 0 0 0 0 0 0 0 0 0 0 0 0 0 0 127 0" result="hardAlpha"/>
<feOffset dy="2"/>
<feGaussianBlur stdDeviation="2.5"/>
<feColorMatrix type="matrix" values="0 0 0 0 0 0 0 0 0 0 0 0 0 0 0 0 0 0 0.13 0"/>
<feBlend mode="normal" in2="BackgroundImageFix" result="effect1_dropShadow_4813_11548"/>
<feColorMatrix in="SourceAlpha" type="matrix" values="0 0 0 0 0 0 0 0 0 0 0 0 0 0 0 0 0 0 127 0" result="hardAlpha"/>
<feOffset dy="10"/>
<feGaussianBlur stdDeviation="5"/>
<feColorMatrix type="matrix" values="0 0 0 0 0 0 0 0 0 0 0 0 0 0 0 0 0 0 0.11 0"/>
<feBlend mode="normal" in2="effect1_dropShadow_4813_11548" result="effect2_dropShadow_4813_11548"/>
<feColorMatrix in="SourceAlpha" type="matrix" values="0 0 0 0 0 0 0 0 0 0 0 0 0 0 0 0 0 0 127 0" result="hardAlpha"/>
<feOffset dy="22"/>
<feGaussianBlur stdDeviation="6.5"/>
<feColorMatrix type="matrix" values="0 0 0 0 0 0 0 0 0 0 0 0 0 0 0 0 0 0 0.07 0"/>
<feBlend mode="normal" in2="effect2_dropShadow_4813_11548" result="effect3_dropShadow_4813_11548"/>
<feColorMatrix in="SourceAlpha" type="matrix" values="0 0 0 0 0 0 0 0 0 0 0 0 0 0 0 0 0 0 127 0" result="hardAlpha"/>
<feOffset dy="39"/>
<feGaussianBlur stdDeviation="8"/>
<feColorMatrix type="matrix" values="0 0 0 0 0 0 0 0 0 0 0 0 0 0 0 0 0 0 0.02 0"/>
<feBlend mode="normal" in2="effect3_dropShadow_4813_11548" result="effect4_dropShadow_4813_11548"/>
<feBlend mode="normal" in="SourceGraphic" in2="effect4_dropShadow_4813_11548" result="shape"/>
</filter>
</defs>
</svg>
