<svg width="105" height="130" viewBox="0 0 105 130" fill="none" xmlns="http://www.w3.org/2000/svg">
<g filter="url(#filter0_dddd_4813_11562)">
<rect x="16.3334" y="3" width="72" height="72" rx="20" fill="white"/>
<path d="M62.1734 58.9999C56.5734 58.9999 52.0134 54.46 52.0134 48.84C52.0134 43.24 56.5534 38.6799 62.1734 38.6799C67.7734 38.6799 72.3334 43.22 72.3334 48.84C72.3334 54.46 67.7934 58.9999 62.1734 58.9999Z" fill="#FF3964"/>
<path d="M38.3734 19H46.2134C50.3534 19 52.3534 21 52.2534 25.04V32.88C52.3534 37.02 50.3534 39.02 46.2134 38.92H38.3734C34.3334 39 32.3334 37 32.3334 32.86V25.02C32.3334 21 34.3334 19 38.3734 19Z" fill="#5956D6"/>
<path d="M46.3534 31.5201C45.7334 31.5201 45.1534 31.2801 44.6134 30.8801C45.1134 30.0801 45.4734 29.1801 45.6534 28.2001H46.3334C47.1534 28.2001 47.8334 27.5201 47.8334 26.7001C47.8334 25.8801 47.1534 25.2001 46.3334 25.2001H44.3534C44.3334 25.2001 44.3134 25.2001 44.3134 25.2001H44.2734H43.7534C43.6734 24.4401 43.0534 23.8401 42.2734 23.8401C41.4934 23.8401 40.8734 24.4401 40.7934 25.2001H38.2134C37.3934 25.2001 36.7134 25.8801 36.7134 26.7001C36.7134 27.5201 37.3934 28.2001 38.2134 28.2001H42.5534C41.9534 30.1201 40.2334 31.5201 38.1934 31.5201C37.3734 31.5201 36.6934 32.2001 36.6934 33.0201C36.6934 33.8401 37.3734 34.5201 38.1934 34.5201C39.8134 34.5201 41.3134 33.9801 42.5534 33.0801C43.6534 34.0001 44.9734 34.5201 46.3334 34.5201C47.1534 34.5201 47.8334 33.8401 47.8334 33.0201C47.8334 32.2001 47.1734 31.5201 46.3534 31.5201Z" fill="white"/>
<path d="M46.3334 60.5C37.7934 60.5 30.8334 53.54 30.8334 45C30.8334 44.18 31.5134 43.5 32.3334 43.5C33.1534 43.5 33.8334 44.18 33.8334 45C33.8334 50.92 37.9534 55.88 43.4934 57.18L42.9534 56.28C42.5334 55.56 42.7534 54.64 43.4734 54.22C44.1734 53.8 45.1134 54.02 45.5334 54.74L47.6334 58.24C47.9134 58.7 47.9134 59.28 47.6534 59.74C47.3734 60.2 46.8734 60.5 46.3334 60.5Z" fill="#5956D6"/>
<path d="M72.3334 34.5C71.5134 34.5 70.8334 33.82 70.8334 33C70.8334 27.08 66.7134 22.12 61.1734 20.82L61.7134 21.72C62.1334 22.44 61.9134 23.36 61.1934 23.78C60.4934 24.2 59.5534 23.98 59.1334 23.26L57.0334 19.76C56.7534 19.3 56.7534 18.72 57.0134 18.26C57.2734 17.78 57.7734 17.5 58.3134 17.5C66.8534 17.5 73.8134 24.46 73.8134 33C73.8334 33.82 73.1534 34.5 72.3334 34.5Z" fill="#FF3964"/>
<path d="M67.7933 51.66L63.5133 43.12C63.2533 42.62 62.7333 42.28 62.1733 42.28C61.6133 42.28 61.0933 42.6 60.8333 43.1L56.5533 51.64C56.1733 52.38 56.4733 53.28 57.2333 53.66C57.4533 53.76 57.6733 53.82 57.8933 53.82C58.4333 53.82 58.9733 53.52 59.2333 53L59.5733 52.32H64.7534L65.0933 53C65.4733 53.74 66.3733 54.04 67.1133 53.68C67.8733 53.3 68.1733 52.4 67.7933 51.66ZM61.0933 49.32L62.1933 47.14L63.2933 49.32H61.0933Z" fill="white"/>
</g>
<defs>
<filter id="filter0_dddd_4813_11562" x="0.333374" y="0" width="104" height="130" filterUnits="userSpaceOnUse" color-interpolation-filters="sRGB">
<feFlood flood-opacity="0" result="BackgroundImageFix"/>
<feColorMatrix in="SourceAlpha" type="matrix" values="0 0 0 0 0 0 0 0 0 0 0 0 0 0 0 0 0 0 127 0" result="hardAlpha"/>
<feOffset dy="2"/>
<feGaussianBlur stdDeviation="2.5"/>
<feColorMatrix type="matrix" values="0 0 0 0 0 0 0 0 0 0 0 0 0 0 0 0 0 0 0.13 0"/>
<feBlend mode="normal" in2="BackgroundImageFix" result="effect1_dropShadow_4813_11562"/>
<feColorMatrix in="SourceAlpha" type="matrix" values="0 0 0 0 0 0 0 0 0 0 0 0 0 0 0 0 0 0 127 0" result="hardAlpha"/>
<feOffset dy="10"/>
<feGaussianBlur stdDeviation="5"/>
<feColorMatrix type="matrix" values="0 0 0 0 0 0 0 0 0 0 0 0 0 0 0 0 0 0 0.11 0"/>
<feBlend mode="normal" in2="effect1_dropShadow_4813_11562" result="effect2_dropShadow_4813_11562"/>
<feColorMatrix in="SourceAlpha" type="matrix" values="0 0 0 0 0 0 0 0 0 0 0 0 0 0 0 0 0 0 127 0" result="hardAlpha"/>
<feOffset dy="22"/>
<feGaussianBlur stdDeviation="6.5"/>
<feColorMatrix type="matrix" values="0 0 0 0 0 0 0 0 0 0 0 0 0 0 0 0 0 0 0.07 0"/>
<feBlend mode="normal" in2="effect2_dropShadow_4813_11562" result="effect3_dropShadow_4813_11562"/>
<feColorMatrix in="SourceAlpha" type="matrix" values="0 0 0 0 0 0 0 0 0 0 0 0 0 0 0 0 0 0 127 0" result="hardAlpha"/>
<feOffset dy="39"/>
<feGaussianBlur stdDeviation="8"/>
<feColorMatrix type="matrix" values="0 0 0 0 0 0 0 0 0 0 0 0 0 0 0 0 0 0 0.02 0"/>
<feBlend mode="normal" in2="effect3_dropShadow_4813_11562" result="effect4_dropShadow_4813_11562"/>
<feBlend mode="normal" in="SourceGraphic" in2="effect4_dropShadow_4813_11562" result="shape"/>
</filter>
</defs>
</svg>
