<svg width="49" height="48" viewBox="0 0 49 48" fill="none" xmlns="http://www.w3.org/2000/svg">
<rect x="14.9994" y="2" width="31" height="31" rx="5" fill="#FF3964" stroke="white" stroke-width="2"/>
<rect x="2.99939" y="10" width="34" height="34" rx="5" fill="#5956D6" stroke="white" stroke-width="2"/>
<path fill-rule="evenodd" clip-rule="evenodd" d="M30.2737 20.412C30.6725 20.8039 30.6725 21.4466 30.2737 21.8384L17.5739 34.3204C17.1886 34.6991 16.5722 34.7033 16.1818 34.33L9.74488 28.1745C9.33695 27.7844 9.3325 27.1342 9.73505 26.7386L11.4943 25.0095C11.8769 24.6334 12.4882 24.6264 12.8795 24.9935L16.1821 28.0924C16.5734 28.4596 17.1847 28.4525 17.5673 28.0764L27.1186 18.6889C27.5077 18.3065 28.1315 18.3065 28.5206 18.6889L30.2737 20.412Z" fill="white"/>
</svg>
