<svg width="49" height="48" viewBox="0 0 49 48" fill="none" xmlns="http://www.w3.org/2000/svg">
<path d="M46.2497 7.9772C46.0142 5.78066 44.0426 4.19092 41.846 4.42643L18.9771 6.87843C16.7806 7.11394 15.1908 9.08552 15.4263 11.2821L17.1321 27.1909C17.3676 29.3874 19.3392 30.9772 21.5357 30.7417L27.2308 30.131C27.408 30.112 27.5872 30.1408 27.7496 30.2143L39.3855 35.4792C40.0901 35.7981 40.8745 35.2306 40.792 34.4616L40.2855 29.737C40.2266 29.1879 40.624 28.695 41.1732 28.6361L44.4046 28.2897C46.6012 28.0541 48.1909 26.0826 47.9554 23.886L46.2497 7.9772Z" fill="#FF3964"/>
<path d="M6 12.0002C3.23858 12.0002 1 14.2388 1 17.0002V33.0002C1 35.7617 3.23858 38.0002 6 38.0002H9.25V42.7518C9.25 44.2987 10.9308 45.26 12.264 44.4757L23.2723 38.0002H30C32.7614 38.0002 35 35.7617 35 33.0002V17.0002C35 14.2388 32.7614 12.0002 30 12.0002H6Z" fill="#5956D6" stroke="white" stroke-width="2"/>
<circle cx="11" cy="25" r="2" fill="white"/>
<circle cx="18" cy="25" r="2" fill="white"/>
<circle cx="25" cy="25" r="2" fill="white"/>
</svg>
