<svg width="417" height="612" viewBox="0 0 417 612" fill="none" xmlns="http://www.w3.org/2000/svg">
<g clip-path="url(#clip0_216_264)">
<rect width="417" height="612" rx="20" fill="#F8F8F8"/>
<path d="M257.06 509.014C256.487 508.942 256.095 508.398 256.206 507.832L260.224 487.502C260.321 487.013 260.763 486.671 261.26 486.693C272.237 487.175 280.294 485.537 285.431 481.779C290.702 477.923 293.923 472.747 295.095 466.251C296.218 460.023 296.533 453.328 296.041 446.166C296.005 445.645 295.57 445.243 295.048 445.243L257 445.243C256.448 445.243 256 444.795 256 444.243L256 382C256 381.448 256.448 381 257 381L330.115 381C330.667 381 331.114 381.448 331.114 382L331.114 457.422C331.114 476.096 324.379 490.101 310.908 499.438C297.358 508.631 279.409 511.823 257.06 509.014ZM352.945 509.014C352.373 508.942 351.98 508.398 352.092 507.833L356.11 487.502C356.206 487.013 356.649 486.671 357.146 486.693C368.123 487.175 376.18 485.537 381.316 481.779C386.588 477.923 389.809 472.747 390.98 466.251C392.103 460.023 392.419 453.328 391.926 446.166C391.891 445.645 391.456 445.243 390.934 445.243L352.885 445.243C352.333 445.243 351.885 444.795 351.885 444.243L351.886 382C351.886 381.448 352.333 381 352.886 381L426 381C426.552 381 427 381.448 427 382L427 457.422C427 476.096 420.265 490.101 406.794 499.438C393.244 508.631 375.294 511.823 352.945 509.014Z" fill="url(#paint0_linear_216_264)"/>
<path d="M87.9411 -0.532161C88.5147 -0.464295 88.9046 0.080317 88.792 0.646868L86.8056 10.6397C86.7086 11.1273 86.267 11.4683 85.7702 11.4507C80.0682 11.2489 75.8668 12.1302 73.1659 14.0948C70.3299 16.1577 68.5968 18.9262 67.9666 22.4005C67.3849 25.6073 67.2059 29.0455 67.4296 32.7149C67.4614 33.2359 67.8966 33.6375 68.4186 33.6375L88 33.6375C88.5523 33.6375 89 34.0852 89 34.6375L89 67C89 67.5523 88.5523 68 88 68L49.5875 68C49.0352 68 48.5875 67.5523 48.5875 67L48.5875 27.1233C48.5875 17.1348 52.2113 9.64345 59.4587 4.64921C66.6498 -0.200748 76.1439 -1.92787 87.9411 -0.532161ZM36.3535 -0.532157C36.9272 -0.46429 37.3171 0.0803215 37.2045 0.646873L35.218 10.6397C35.1211 11.1273 34.6795 11.4683 34.1827 11.4508C28.4807 11.2489 24.2793 12.1302 21.5783 14.0948C18.7424 16.1577 17.0093 18.9262 16.3791 22.4005C15.7974 25.6073 15.6184 29.0455 15.8421 32.7149C15.8738 33.2359 16.3091 33.6375 16.8311 33.6375L36.4125 33.6375C36.9648 33.6375 37.4125 34.0852 37.4125 34.6375L37.4125 67C37.4125 67.5523 36.9648 68 36.4125 68L-1.99999 68C-2.55228 68 -2.99999 67.5523 -2.99999 67L-3 27.1233C-3 17.1348 0.623732 9.64345 7.87119 4.64922C15.0623 -0.200743 24.5564 -1.92787 36.3535 -0.532157Z" fill="url(#paint1_linear_216_264)"/>
</g>
<rect x="0.5" y="0.5" width="416" height="611" rx="19.5" stroke="#DCDCDC"/>
<defs>
<linearGradient id="paint0_linear_216_264" x1="341.5" y1="381" x2="341.5" y2="510" gradientUnits="userSpaceOnUse">
<stop stop-color="#BDBBEF" stop-opacity="0.2"/>
<stop offset="1" stop-color="#BDBBEF" stop-opacity="0.1"/>
</linearGradient>
<linearGradient id="paint1_linear_216_264" x1="43" y1="68" x2="43" y2="-1" gradientUnits="userSpaceOnUse">
<stop stop-color="#BDBBEF" stop-opacity="0.2"/>
<stop offset="1" stop-color="#BDBBEF" stop-opacity="0.7"/>
</linearGradient>
<clipPath id="clip0_216_264">
<rect width="417" height="612" rx="20" fill="white"/>
</clipPath>
</defs>
</svg>
