<svg width="52" height="48" viewBox="0 0 52 48" fill="none" xmlns="http://www.w3.org/2000/svg">
<path d="M19.0729 20.6805L19.7774 21.3902L16.3816 24.761C15.9876 25.1521 15.9876 25.7893 16.3816 26.1804L15.6771 26.8901L15.6771 26.8901L26.8799 38.0104C27.6598 38.7845 28.9181 38.7845 29.6979 38.0104L49.6561 18.1992C50.4442 17.417 50.4442 16.1426 49.6561 15.3603L46.2604 11.9896C45.4805 11.2155 44.2222 11.2155 43.4424 11.9896L43.4424 11.9896L28.2889 27.0315L21.8908 20.6805C21.111 19.9064 19.8527 19.9064 19.0729 20.6805Z" fill="#FF3964" stroke="white" stroke-width="2"/>
<path d="M31.5756 8.98958C30.7958 8.21549 29.5375 8.21549 28.7577 8.98958L28.7576 8.98958L13.588 24.0475L7.87372 18.6322C7.08924 17.8888 5.85607 17.9031 5.08903 18.6645L1.68698 22.0415C0.891335 22.8313 0.900167 24.1207 1.70656 24.8995L12.2052 35.0391C12.9879 35.795 14.2313 35.7865 15.0035 35.0199L34.9714 15.1992C35.7594 14.417 35.7594 13.1426 34.9714 12.3603L34.2788 13.0581L34.9714 12.3603L31.5756 8.98958ZM31.5756 8.98958L30.8711 9.6993L31.5756 8.98958L31.5756 8.98958Z" fill="#5956D6" stroke="white" stroke-width="2"/>
</svg>
