<svg width="49" height="48" viewBox="0 0 49 48" fill="none" xmlns="http://www.w3.org/2000/svg">
<path d="M46.2507 7.9772C46.0151 5.78066 44.0436 4.19092 41.847 4.42643L18.9781 6.87843C16.7815 7.11394 15.1918 9.08552 15.4273 11.2821L17.133 27.1909C17.3686 29.3874 19.3401 30.9772 21.5367 30.7417L27.2317 30.131C27.409 30.112 27.5881 30.1408 27.7506 30.2143L39.3865 35.4792C40.0911 35.7981 40.8755 35.2306 40.793 34.4615L40.2864 29.737C40.2276 29.1879 40.625 28.695 41.1741 28.6361L44.4056 28.2897C46.6022 28.0541 48.1919 26.0826 47.9564 23.886L46.2507 7.9772Z" fill="#FF3964"/>
<path d="M6 12.0002C3.23858 12.0002 1 14.2388 1 17.0002V33.0002C1 35.7617 3.23858 38.0002 6 38.0002H9.25V42.7518C9.25 44.2987 10.9308 45.26 12.264 44.4757L23.2723 38.0002H30C32.7614 38.0002 35 35.7617 35 33.0002V17.0002C35 14.2388 32.7614 12.0002 30 12.0002H6Z" fill="#5956D6" stroke="white" stroke-width="2"/>
<path d="M22.0942 18.0002H16.6789C16.4872 18.0002 16.3122 18.1078 16.2274 18.2778L12.0526 26.6462C11.8875 26.977 12.131 27.3642 12.504 27.3642H15.8442C16.2254 27.3642 16.4682 27.7668 16.2872 28.0985L13.4684 33.2616C13.1978 33.7573 13.8371 34.2462 14.2542 33.8626L22.8384 25.9662C23.1733 25.6582 22.9529 25.1039 22.4956 25.1039H19.6584C19.2699 25.1039 19.0278 24.6873 19.2235 24.3554L22.5291 18.7488C22.7248 18.4169 22.4827 18.0002 22.0942 18.0002Z" fill="white"/>
</svg>
