<svg width="150" height="55" viewBox="0 0 150 55" fill="none" xmlns="http://www.w3.org/2000/svg">
<rect x="0.168945" width="149.663" height="55" rx="4" fill="#FCAF17"/>
<g clip-path="url(#clip0_2096_1424)">
<path d="M19.1764 25.613C18.6261 25.2985 16.9749 24.8267 13.9872 23.9619C12.8864 23.726 11.5498 23.1756 11.5498 22.3107C11.5498 21.6817 11.9429 21.0527 12.4933 20.8169C13.1223 20.5024 13.8299 20.3451 14.5376 20.3451C15.5597 20.2665 16.5032 20.581 17.2894 21.0527C18.2329 21.6817 19.0192 22.468 19.6482 23.3329L20.2772 23.0184L19.4123 19.0871L19.3337 18.6154L18.9406 18.8512C18.5474 19.0085 18.2329 19.0871 17.8398 19.0871C17.6826 19.0871 16.3459 18.9299 15.9528 18.8512C15.4811 18.7726 15.0879 18.7726 14.6162 18.7726C13.2009 18.694 11.8643 19.0085 10.6849 19.6375C9.42692 20.2665 8.64067 21.6031 8.7193 23.097C8.7193 24.7481 9.74142 25.9275 11.7071 26.7924L16.8177 28.3649C18.4688 28.9939 19.3337 29.8588 19.3337 31.0381C19.3337 32.1389 18.7833 33.0824 17.9184 33.7114C17.0536 34.419 15.9528 34.7335 14.8521 34.7335C13.6727 34.8121 12.4933 34.3404 11.5498 33.7114C10.5277 32.9251 9.6628 31.903 8.95517 30.8809L8.32617 31.1168L9.3483 35.7556L9.50555 36.306L9.9773 35.9129C10.2132 35.7556 10.5277 35.5984 10.8422 35.677C11.6284 35.8343 12.2574 35.9129 12.8864 35.9915C13.5941 36.0701 14.3017 36.1488 15.0093 36.1488C16.8177 36.2274 18.5474 35.5984 20.0413 34.5763C21.5352 33.5541 22.3214 31.903 22.3214 30.1733C22.1642 28.2076 21.2207 26.6351 19.1764 25.613ZM35.1373 35.1266C35.0587 34.9694 34.9801 34.8121 34.9801 34.6549V28.6794C34.9801 27.3427 34.7442 26.3992 34.2725 25.7702C33.8793 25.1412 33.0145 24.7481 31.9137 24.7481C30.8916 24.7481 29.9481 25.0626 29.0832 25.5344C28.5328 25.8489 28.0611 26.0847 27.668 26.4779V20.5024L27.1962 20.6596L24.2084 21.3672L24.2871 22.0749C24.4443 22.1535 24.6016 22.2321 24.6802 22.3894C24.7588 22.5466 24.7588 22.7039 24.7588 22.8611V34.7335C24.7588 34.8908 24.6802 35.1266 24.6016 35.2053C24.5229 35.3625 24.4443 35.4411 24.2871 35.5198L24.4443 36.2274H27.8252L28.0611 35.5198C27.9038 35.4411 27.8252 35.3625 27.7466 35.2839C27.668 35.2053 27.668 35.1266 27.5893 35.048V29.8588C27.668 29.0725 27.9825 28.2862 28.5328 27.7359C29.0832 27.1069 29.7908 26.7924 30.6557 26.7137C31.0488 26.7137 31.442 26.871 31.6778 27.1855C31.9923 27.5 32.1496 27.8931 32.1496 28.2862V34.7335C32.1496 34.8908 32.071 35.048 31.9923 35.2053C31.9137 35.3625 31.7565 35.4411 31.6778 35.5198L31.9137 36.2274H35.3732L35.5305 35.5198C35.3732 35.3625 35.216 35.2839 35.1373 35.1266ZM48.7395 35.4411C48.425 35.2839 48.2677 35.048 48.1891 34.7335C48.1105 34.5763 48.1105 34.419 48.1105 34.2618V27.5786C48.1891 26.4779 47.5601 25.4557 46.538 24.984C45.5945 24.5909 44.5724 24.355 43.6289 24.4336C42.9212 24.4336 42.2922 24.5122 41.5846 24.6695C41.0342 24.7481 40.4838 24.9054 39.9335 25.1412L39.7762 25.2199C39.6976 25.2199 39.5403 25.1412 39.5403 25.0626L39.4617 24.984L38.9113 24.1977L38.7541 25.1412L38.2037 28.6794L38.9113 28.9152C39.2258 28.0504 39.7762 27.3427 40.5625 26.871C41.3487 26.3992 42.135 26.1634 42.9999 26.1634C43.4716 26.1634 44.022 26.3206 44.4151 26.4779C44.7296 26.6351 44.9655 27.0282 44.9655 27.4214V28.3649C43.1571 28.5221 41.4273 28.9939 39.8548 29.8588C38.2823 30.7236 37.4175 31.8244 37.4175 33.161C37.4175 34.1045 37.8892 35.048 38.7541 35.5198C39.5403 36.0701 40.4838 36.306 41.3487 36.306C42.2136 36.306 42.9999 36.0701 43.7861 35.677C44.3365 35.3625 44.8082 35.1266 45.28 34.8121C45.3586 34.9694 45.4372 35.048 45.4372 35.2053C45.6731 35.8343 46.0662 35.9915 46.3021 35.9915H49.7616L48.7395 35.4411ZM45.0441 30.0946V31.7458C45.0441 32.532 44.651 33.2396 44.1006 33.7114C43.5502 34.2618 42.8426 34.5763 42.0563 34.5763C41.6632 34.5763 41.2701 34.419 40.9556 34.1045C40.6411 33.8686 40.4838 33.4755 40.4838 33.161C40.4838 32.2175 41.0342 31.5099 42.135 30.8809C43.0785 30.4091 44.022 30.1733 45.0441 30.0946ZM57.3096 24.7481C56.9951 24.7481 56.6806 24.8267 56.3661 24.9054C55.8944 25.0626 55.5012 25.1412 55.1081 25.3771C54.715 25.613 54.3219 25.9275 54.0074 26.242L53.5356 26.7137L53.2997 26.0061C53.2211 25.7702 53.0639 25.5344 52.9852 25.2985C53.0639 25.1412 52.9852 24.984 52.9852 24.9054L52.828 24.6695L52.5921 24.7481L50.1547 25.2985L49.3685 25.4557L49.9975 25.9275C50.3906 26.242 50.7051 26.6351 50.941 27.1069C51.0982 27.3427 51.0982 27.6572 51.1769 27.8931C51.2555 28.129 51.2555 28.4435 51.2555 28.6794V34.9694C51.2555 35.1266 51.1769 35.2839 51.1769 35.4411C51.0982 35.5984 51.0196 35.677 50.8624 35.7556L51.0196 36.4633H55.4226L54.3219 35.7556C54.1646 35.677 54.086 35.5984 54.0074 35.4411C53.9287 35.2839 53.9287 35.1266 53.9287 34.9694V29.3084C53.9287 28.9152 54.086 28.5221 54.3219 28.2076C54.5577 27.8931 54.8722 27.5786 55.1867 27.3427C55.5012 27.1069 55.7371 27.0282 56.1302 27.0282C56.3661 27.0282 56.602 27.1069 56.8379 27.1855C56.9951 27.2641 57.1524 27.3427 57.231 27.5L57.7028 28.3649L57.86 27.4214L58.2531 25.2985L58.0959 24.7481H57.3096ZM69.5751 34.7335C69.4965 34.5763 69.4965 34.419 69.4965 34.2618V27.5786C69.5751 26.4779 68.9461 25.4557 67.924 24.984C66.9805 24.5909 65.9584 24.355 65.0149 24.4336C64.3073 24.4336 63.6783 24.5122 62.9706 24.6695C62.4203 24.7481 61.8699 24.9054 61.3195 25.1412H61.2409C61.1623 25.1412 61.005 25.0626 61.005 24.984L60.9264 24.9054L60.376 24.2764L60.2188 25.0626L59.6684 28.6007L60.376 28.8366C60.6905 27.9717 61.2409 27.2641 62.0271 26.7924C62.8134 26.3206 63.5996 26.0847 64.4645 26.0847C64.9363 26.0847 65.4866 26.242 65.8798 26.3992C66.1943 26.5565 66.4301 26.9496 66.4301 27.3427V28.2862C64.6218 28.4435 62.892 28.9152 61.3195 29.7801C59.6684 30.645 58.8821 31.7458 58.8821 33.0824C58.8821 34.0259 59.3539 34.9694 60.2188 35.4411C61.005 35.9915 61.8699 36.2274 62.8134 36.2274C63.6783 36.2274 64.4645 35.9915 65.2508 35.5984C65.8011 35.2839 66.2729 35.048 66.7446 34.7335C66.8233 34.8908 66.9019 34.9694 66.9805 35.1266C67.2164 35.677 67.4523 35.9129 67.8454 35.9129H71.3049L70.2828 35.2839C69.8896 35.2839 69.6538 35.048 69.5751 34.7335ZM66.4301 31.7458C66.4301 32.532 66.037 33.2396 65.4866 33.7114C64.9363 34.2618 64.2286 34.5763 63.4424 34.5763C63.0493 34.5763 62.6561 34.419 62.3416 34.1045C62.0271 33.8686 61.8699 33.4755 61.8699 33.161C61.8699 32.2961 62.4203 31.5099 63.521 30.8809C64.3859 30.4091 65.3294 30.0946 66.3515 30.016L66.4301 31.7458ZM79.5605 20.581C79.1674 20.3451 78.7743 20.1879 78.3812 20.1092C77.9094 20.0306 77.5163 20.0306 77.0445 20.0306C75.6293 20.0306 74.5285 20.4237 73.7423 21.21C72.8774 22.0749 72.4843 23.3329 72.4843 24.984C72.4843 24.984 72.4057 25.1412 72.0912 25.3771C71.9339 25.5344 71.698 25.6916 71.5408 25.7702L71.698 26.4779H72.4843V34.7335C72.4843 34.9694 72.4056 35.1266 72.327 35.3625C72.2484 35.5198 72.0911 35.5984 71.9339 35.677L72.0912 36.3846H75.7865L75.9438 35.677C75.7865 35.5984 75.6293 35.4411 75.5507 35.3625C75.472 35.2053 75.3934 34.9694 75.3934 34.8121V26.3992H77.359L77.4377 26.1634L77.9094 25.2199L78.2239 24.7481H75.472V23.4901C75.472 22.9397 75.6293 22.3894 75.9438 21.9176C76.1797 21.5245 76.5728 21.3672 77.0445 21.3672C77.359 21.3672 77.7522 21.4459 77.988 21.6817C78.3025 21.9962 78.4598 22.3107 78.5384 22.7039L78.8529 23.726L79.246 22.7039L79.7178 20.9741L79.875 20.6596L79.5605 20.581ZM83.8063 18.694H91.5116V22.9397H83.8063V18.694ZM133.969 26.3206H141.674V30.645H133.969V26.3206Z" fill="#0079C1"/>
<path d="M111.64 27.1855C111.64 19.0872 99.453 18.694 99.453 18.694H92.9272V22.9398H98.9027C104.406 22.9398 104.092 27.5787 104.092 27.5787C103.935 31.7458 98.5095 31.8244 98.5095 31.8244H91.5119V24.2764H83.8066V35.9916H97.4874C99.8462 35.9916 102.519 35.7557 102.519 35.7557C112.033 34.0259 111.64 27.1855 111.64 27.1855ZM141.675 18.694V22.9398H127.837C127.837 22.9398 121.468 22.6253 121.468 27.3428C121.468 27.3428 121.154 31.8244 127.679 31.8244H141.675V35.9129H126.972C126.972 35.9129 113.684 35.9916 113.684 27.0283C113.684 27.0283 113.448 19.323 125.242 18.694H141.675Z" fill="#0079C1"/>
</g>
<defs>
<clipPath id="clip0_2096_1424">
<rect width="133.663" height="18.0838" fill="white" transform="translate(8.16895 18.4581)"/>
</clipPath>
</defs>
</svg>
