<svg width="65" height="49" viewBox="0 0 65 49" fill="none" xmlns="http://www.w3.org/2000/svg">
<g clip-path="url(#clip0_2096_2415)">
<path d="M58.0686 35.3013L59.0444 34.6209C59.0444 34.6209 56.9919 29.9262 56.5544 28.9056C56.117 27.885 55.7469 27.1365 55.7469 27.1365C55.3431 26.4562 54.8383 25.8438 54.2663 25.2995L54.7374 24.6871C54.7374 24.6871 53.526 21.9656 52.7521 20.1285C52.2474 18.9718 51.4062 18.0193 50.3967 17.3049C49.6901 16.8286 48.9161 16.4884 48.0749 16.3183L44.5755 15.4338L43.4314 12.9163C43.1622 12.8483 42.5229 12.7462 41.5807 12.6101L32.8657 0.703247L24.1843 12.5761C23.545 12.6782 22.872 12.7462 22.2327 12.8823L21.1896 15.1276L17.6228 15.876C17.0844 15.9781 16.4114 16.1482 16.0076 16.2502C15.2001 16.4544 13.1811 17.0327 12.8446 17.1688L12.1717 17.3729L10.4556 21.2852L11.5996 22.8841L7.19165 33.8724L8.16747 34.5869L0.832031 44.6227H24.0833L32.8657 48.2968L41.648 44.6227H64.832L58.0686 35.3013Z" fill="url(#paint0_linear_2096_2415)"/>
<path d="M55.9484 35.5054L57.9337 34.1786L55.8138 29.3478C55.41 28.3273 55.1072 27.7489 55.1072 27.7489C54.5351 26.8304 53.7949 25.9799 52.9536 25.3335L53.6603 24.415C53.6603 24.415 52.5162 21.7955 51.9442 20.4347C51.3048 18.9718 50.0935 17.8832 48.5793 17.3729C47.0314 16.8966 44.2723 16.3523 44.2723 16.3523L43.5656 18.4275C42.9263 18.3255 41.2439 18.0533 41.2439 18.0533L40.8401 19.5842L39.9316 17.8832C36.8022 17.4409 33.6392 17.3049 30.4762 17.4069C27.145 17.509 23.8474 17.8492 20.5499 18.3935L19.7086 16.3183C16.6129 16.8966 12.8106 18.1213 12.8106 18.1213L11.532 20.979L12.676 22.5779L8.3017 33.3962L10.2533 34.757L4.39844 42.7516H24.4531L32.798 46.1536L41.1429 42.7856H61.2649L55.9484 35.5054ZM13.1808 34.8931C12.8779 34.9611 11.7675 35.2673 11.7339 35.3013L9.24386 33.5663C9.78224 33.3962 10.8927 33.09 12.4405 32.7158L14.594 34.5529C14.4258 34.5869 13.4836 34.825 13.1808 34.8931ZM19.3385 33.7024L17.9589 33.9745L16.1082 31.9333C16.7812 31.7973 17.4542 31.6952 18.1608 31.5591L19.3048 31.389L20.819 33.4642C20.6845 33.4642 19.7086 33.6343 19.3385 33.7024ZM25.5635 32.9199C25.2607 32.9539 24.3185 33.022 24.1166 33.056L23.0062 30.8787C23.6455 30.8107 24.2512 30.7426 24.8906 30.7086L26.3374 30.6066L27.0777 32.8179C26.8758 32.8179 25.8664 32.8859 25.5635 32.9199ZM30.4089 32.6137C29.736 32.6137 29.063 32.6478 28.9957 32.6818L28.4573 30.4705C29.0294 30.4365 29.6014 30.4025 30.1734 30.4025H31.7886L31.9231 32.6478C31.9231 32.6137 31.1492 32.6137 30.4089 32.6137ZM37.0041 32.7498C36.9368 32.7498 36.2638 32.6818 35.5572 32.6478C34.8506 32.6137 34.144 32.5797 34.043 32.5797L34.1776 30.4025C34.716 30.4365 35.288 30.4365 35.8937 30.4705L37.5088 30.5726L37.0041 32.7498ZM40.8064 33.1921C40.0662 33.09 38.3837 32.9199 37.9126 32.8859L38.5183 30.7086C39.696 30.8107 40.7728 30.9127 41.7822 31.0488L40.8064 33.1921ZM45.8537 33.8725C45.8201 33.8725 43.6666 33.4982 43.1618 33.3962L44.3396 31.355C45.45 31.5251 46.4594 31.6952 47.4016 31.8993L45.8537 33.8725ZM49.1513 34.5869C49.084 34.5529 49.0167 34.5529 48.9158 34.5188C48.411 34.3828 47.94 34.1786 47.5025 33.8725L49.3532 31.6612C49.3869 31.6612 49.3869 31.6952 49.4205 31.6952C49.757 31.9333 50.0935 32.1375 50.4636 32.3076C50.5646 32.3416 51.4731 32.7158 51.7759 32.7838C51.8432 32.8179 56.3185 34.0766 56.7896 34.2127L56.8905 34.2467L54.6697 35.7095C54.0304 35.6415 50.5309 34.9611 49.1513 34.5869Z" fill="#1B2133"/>
<path d="M22.6025 17.1688C23.2418 17.0667 23.8475 16.9987 24.4868 16.9307C24.6887 16.3523 24.8569 15.74 25.0588 15.1616C24.7896 15.1956 24.4868 15.2297 24.2176 15.2637C24.083 15.6039 23.9821 15.9441 23.8475 16.2843C23.6456 16.3183 23.4437 16.3523 23.2418 16.3523C23.1072 16.3863 23.0735 16.3183 23.1072 16.2162C23.2754 15.774 23.4437 15.3317 23.6119 14.9235C23.6456 14.8214 23.7465 14.7194 23.8811 14.7194C24.2176 14.6854 24.5541 14.6173 24.8569 14.5833L25.1598 14.3111C25.2271 14.141 25.2607 13.9709 25.328 13.8008C24.8233 13.8689 24.3522 13.9369 23.8475 14.005C23.6456 14.039 23.4437 14.141 23.3091 14.2771C23.1408 14.4132 23.0062 14.5833 22.9053 14.7874C22.6361 15.3998 22.4006 16.0121 22.1314 16.5905C22.0304 16.7265 22.0304 16.8966 22.1314 17.0667C22.266 17.1688 22.4342 17.2028 22.6025 17.1688Z" fill="#1B2133"/>
<path d="M26.0011 16.8286C26.4049 16.7945 26.8423 16.7605 27.2461 16.7265C27.448 16.7265 27.6499 16.6244 27.8182 16.4884C27.9864 16.3523 28.0874 16.1822 28.0874 15.9781C28.2556 15.1616 28.3902 14.3111 28.5584 13.4946L27.7845 13.5627C27.6163 14.3111 27.448 15.0595 27.2798 15.808C27.2461 15.91 27.1788 16.0121 27.0442 16.0121L26.5059 16.0461C26.3713 16.0461 26.3376 16.0121 26.3713 15.876C26.5732 15.1276 26.7078 14.3791 26.9096 13.6307L26.1357 13.6987C25.9002 14.5152 25.6983 15.3657 25.4627 16.2162C25.3954 16.3523 25.4291 16.5564 25.53 16.6925C25.631 16.7945 25.8329 16.8626 26.0011 16.8286Z" fill="#1B2133"/>
<path d="M29.3993 15.842L28.659 15.876C28.6254 16.1142 28.5917 16.3523 28.5244 16.5905C28.8946 16.5564 29.2647 16.5564 29.6685 16.5224C29.8704 16.5224 30.0723 16.4544 30.2405 16.3183C30.3751 16.1822 30.476 16.0121 30.5097 15.842C30.577 15.0255 30.6443 14.2091 30.7452 13.3586C30.476 13.3586 30.2068 13.3586 29.9713 13.3926C29.8704 14.141 29.7694 14.8895 29.7021 15.6379C29.6012 15.774 29.5002 15.876 29.3993 15.842C29.3993 15.876 29.3993 15.876 29.3993 15.842Z" fill="#1B2133"/>
<path d="M41.0084 14.6173C41.2776 15.4337 41.5804 16.2162 41.8833 16.9987L42.7918 17.1347C42.4889 16.3183 42.1525 15.5358 41.8496 14.7193L42.6908 14.8214L42.5899 14.6173L42.388 14.107C41.5804 13.9709 40.7392 13.8688 39.9316 13.7668C39.9989 14.0049 40.0999 14.2431 40.1672 14.5152C40.4364 14.5492 40.7056 14.5833 41.0084 14.6173Z" fill="#1B2133"/>
<path d="M31.9572 13.3585C31.6543 14.2771 31.3179 15.1616 30.9477 16.0801C30.9477 16.2162 30.9477 16.3183 30.9141 16.4543L31.7889 16.4203C31.8226 16.2502 31.8899 16.0801 31.9235 15.876H32.8993C32.933 16.0461 32.9666 16.2162 33.0339 16.4203H33.9425C33.9425 16.2842 33.9425 16.1822 33.9088 16.0461C33.5723 15.1276 33.2358 14.2431 32.933 13.3245C32.6302 13.3585 32.2937 13.3585 31.9572 13.3585ZM32.1254 15.2296C32.2264 14.8554 32.3273 14.4472 32.4283 14.073H32.4619C32.5629 14.4472 32.6302 14.8554 32.7311 15.2296H32.1254Z" fill="#1B2133"/>
<path d="M36.466 16.5564L37.3745 16.6245C37.3745 16.5224 37.3745 16.3863 37.3409 16.2843C37.1053 16.0121 36.8698 15.706 36.6343 15.4338H36.6679C36.7352 15.3998 36.8025 15.3658 36.8698 15.2977C36.9371 15.1957 36.9708 15.0596 36.9371 14.9235C36.9035 14.6854 36.8362 14.4472 36.8025 14.2091C36.7689 14.005 36.6679 13.8349 36.5333 13.6988C36.3987 13.5627 36.2305 13.4947 36.0286 13.4947C35.4566 13.4607 34.8845 13.4266 34.3125 13.4266C34.3798 14.4472 34.4471 15.4678 34.548 16.5224L35.4229 16.5564C35.3893 16.2163 35.3556 15.842 35.322 15.5018H35.7594C36.0286 15.842 36.2641 16.1822 36.466 16.5564ZM35.2883 14.7194C35.2883 14.5153 35.2547 14.3452 35.221 14.141L35.8603 14.1751C35.9613 14.1751 36.0622 14.2431 36.0622 14.3792C36.0622 14.4472 36.0959 14.5153 36.0959 14.5833C36.0959 14.6513 36.0622 14.7534 35.9276 14.7534C35.7258 14.7534 35.5239 14.7194 35.2883 14.7194Z" fill="#1B2133"/>
<path d="M37.8457 16.2503C37.8457 16.3863 37.8793 16.4884 37.8793 16.6245C37.8793 16.6245 38.485 16.6585 38.7879 16.6925C38.7879 16.5224 38.7879 16.3523 38.7879 16.1822C39.1244 16.2162 39.4272 16.2503 39.7637 16.2843L40.0329 16.8286L40.9414 16.9306C40.9077 16.7946 40.8741 16.6585 40.8068 16.5564C40.2348 15.6039 39.6627 14.6513 39.1244 13.7328L38.0812 13.6307C37.9803 14.4812 37.913 15.3657 37.8457 16.2503ZM38.7879 14.3452C38.9898 14.7534 39.1917 15.1616 39.3935 15.5699L38.7879 15.5018C38.7879 15.1276 38.7879 14.7194 38.7542 14.3452H38.7879Z" fill="#1B2133"/>
<path d="M39.0906 12.372L32.8319 3.76501L26.5732 12.372C28.3903 12.2019 30.5438 12.0658 32.8319 12.0658C35.12 12.0998 37.2736 12.2019 39.0906 12.372Z" fill="#1B2133"/>
<path d="M39.2257 35.9476C39.6967 36.2538 40.1678 36.526 40.6053 36.8321C38.0143 36.662 34.784 36.56 32.8324 36.56C30.8808 36.56 27.6505 36.662 25.0595 36.8321C25.5306 36.526 25.968 36.2198 26.4391 35.9476C21.9302 36.6961 12.6768 38.0569 12.6768 38.0569C12.6768 38.0569 19.5075 37.8527 22.7041 37.5125C22.1657 37.8187 21.5937 38.1589 21.0553 38.4651C24.9586 38.0909 29.8713 37.8868 32.8324 37.8868C35.7935 37.8868 40.7062 38.0909 44.6095 38.4651C44.0711 38.1249 43.5327 37.8187 42.9607 37.5125C46.1573 37.8527 52.988 38.0569 52.988 38.0569C52.988 38.0569 43.7009 36.6961 39.2257 35.9476Z" fill="white"/>
<path d="M24.5212 20.5367C24.5212 20.6048 22.8724 30.4364 22.8724 30.4705C23.2089 30.4364 24.151 30.3344 24.5548 30.3004C24.9586 30.2663 26.2372 30.1643 26.2372 30.1643L27.2467 20.2986C27.415 20.2986 28.1552 20.2305 28.3235 20.2305C28.4917 20.2305 29.3329 20.1965 29.4002 20.1625C29.4002 19.9584 29.5348 18.0873 29.5348 17.8832C26.6074 17.9512 22.8051 18.4615 22.8051 18.4615C22.7714 18.6656 22.6032 19.346 22.5695 19.6182C22.5022 19.9244 22.334 20.7068 22.334 20.7749L23.4107 20.6388L24.5212 20.5367Z" fill="white"/>
<path d="M40.2347 30.4365L41.8835 30.6406C41.8835 30.6066 40.9077 25.0954 40.9077 25.0954L44.5081 30.9808C44.5754 30.9808 45.6858 31.1849 46.0896 31.2529C46.4934 31.321 47.4692 31.4911 47.6711 31.5591C47.6711 31.5251 44.4408 20.0945 44.138 19.0739L42.8257 18.8358C42.5901 18.8017 41.7489 18.6657 41.5134 18.6316C41.6143 19.0739 42.7247 23.9047 42.7247 24.0408C42.6911 23.9727 39.6627 18.5976 39.5281 18.3595L38.2831 18.2234L37.0381 18.1213C37.139 19.0058 38.5186 30.3004 38.5186 30.3344C38.8215 30.3004 39.7973 30.4024 40.2347 30.4365Z" fill="white"/>
<path d="M15.873 31.5591C15.873 31.5591 17.8247 31.1849 19.137 30.9807C19.137 30.9467 21.9635 18.8017 21.9971 18.6316C20.8867 18.8017 19.4735 19.0738 19.4735 19.0738C19.3725 19.414 15.873 31.5251 15.873 31.5591Z" fill="white"/>
<path d="M18.6661 19.21C18.6997 19.1419 19.3391 16.9647 19.3727 16.8626C16.8827 17.3389 13.0804 18.4956 13.0804 18.4956C13.0467 18.5636 12.1046 20.6728 12.0036 20.911C12.1719 20.8429 13.8543 20.4007 14.0226 20.3326C14.0226 20.3666 8.84065 33.1921 8.807 33.2601C8.77335 33.3281 11.0951 32.6137 12.3065 32.3416L16.5799 19.6862C16.5799 19.6862 18.4642 19.244 18.6661 19.21Z" fill="white"/>
<path d="M55.3769 29.518C54.8722 28.3613 54.7039 28.0551 54.7039 28.0551C54.3338 27.4087 53.8627 26.7964 53.3243 26.2861C52.9205 25.9119 52.4831 25.5717 52.0457 25.2315L49.3201 23.1222C49.1519 22.9862 49.0173 22.8501 48.9163 22.68C48.9163 22.646 48.8827 22.612 48.849 22.5439C48.8154 22.4759 47.9069 19.9244 47.8732 19.8904L48.7817 20.1285C48.9163 20.1625 49.0509 20.2646 49.1182 20.4007L49.6903 21.8635L53.0888 24.381L53.0551 24.347L51.5746 20.911C51.2718 20.1285 50.8007 19.4481 50.195 18.9038C49.5893 18.3255 48.8154 17.9172 48.0078 17.7471L44.542 16.9307C44.542 16.9307 45.5851 20.2986 45.9889 21.6594C45.9889 21.6594 46.1908 22.3058 46.2581 22.4759C46.5946 23.1903 47.0657 23.8026 47.6713 24.3129C47.9742 24.5851 48.277 24.8232 48.6135 25.0273C48.7481 25.1294 51.1708 26.9665 51.44 27.1026C51.7092 27.2727 51.9111 27.5448 52.012 27.851L53.0215 30.4705L51.8101 30.1303C51.6755 30.0963 51.5409 29.9942 51.4736 29.8581C51.4736 29.8581 50.9689 28.4974 50.9353 28.3613L47.3348 25.8438C47.3348 25.8438 48.3443 29.1097 48.4453 29.518C48.6471 30.1983 49.0509 30.7767 49.5893 31.2189C50.094 31.6612 50.6997 32.0014 51.3054 32.2055C51.8774 32.4096 52.4158 32.6137 53.0215 32.7498C54.0982 33.056 57.2949 33.9745 57.3958 34.0085C57.3622 34.0085 55.848 30.6406 55.3769 29.518Z" fill="white"/>
<path d="M34.9858 17.8832C34.2119 17.8492 33.4379 17.8492 32.765 17.8492C31.9574 17.8492 30.6451 17.8832 30.6451 17.8832C30.5105 18.6316 28.4579 29.7561 28.3906 30.0623C28.3906 30.0623 30.3759 29.9942 31.7892 29.9942L32.0247 27.3407L33.7408 27.3747C33.7744 27.5788 34.1446 30.0623 34.1446 30.0963C34.1446 30.1303 36.0289 30.1643 37.5431 30.2664C37.5431 30.1643 34.9858 17.9172 34.9858 17.8832ZM33.4716 24.8913L32.2602 24.8572L32.765 19.8223L33.4716 24.8913Z" fill="white"/>
</g>
<defs>
<linearGradient id="paint0_linear_2096_2415" x1="-0.00582358" y1="24.4898" x2="71.4642" y2="24.4898" gradientUnits="userSpaceOnUse">
<stop offset="0.07" stop-color="#F7E08B"/>
<stop offset="0.22" stop-color="#F3DC87"/>
<stop offset="0.37" stop-color="#E8CE7B"/>
<stop offset="0.52" stop-color="#D5B768"/>
<stop offset="0.61" stop-color="#C6A55A"/>
<stop offset="0.85" stop-color="#F7E08B"/>
<stop offset="0.93" stop-color="#E0C473"/>
<stop offset="1" stop-color="#C6A55A"/>
</linearGradient>
<clipPath id="clip0_2096_2415">
<rect width="64" height="47.6444" fill="white" transform="translate(0.832031 0.677795)"/>
</clipPath>
</defs>
</svg>
